<?xml version="1.0" encoding="UTF-8" standalone="no"?>
<!DOCTYPE svg PUBLIC "-//W3C//DTD SVG 1.1//EN" "http://www.w3.org/Graphics/SVG/1.1/DTD/svg11.dtd">
<svg width="100%" height="100%" viewBox="0 0 852 340" version="1.1" xmlns="http://www.w3.org/2000/svg" xmlns:xlink="http://www.w3.org/1999/xlink" xml:space="preserve" xmlns:serif="http://www.serif.com/" style="fill-rule:evenodd;clip-rule:evenodd;stroke-linejoin:round;stroke-miterlimit:2;">
    <g transform="matrix(1,0,0,1,-160.25572,-546.904441)">
        <g transform="matrix(1.146969,0,0,1,-77.736557,85.397039)">
            <path d="M853.253,801.279L207.497,801.279L207.497,461.507L949.479,461.507L853.253,801.279ZM280.374,736.159L411.562,736.159L411.562,690.315L329.907,690.315L329.907,652.627L405.187,652.627L405.187,607.909L329.907,607.909L329.907,572.471L412.052,572.471L412.052,526.627L280.374,526.627L280.374,736.159ZM523.604,688.381C521.8,679.426 519.968,670.532 518.106,661.698C514.265,643.463 510.055,625.534 505.478,607.909L484.267,526.627L428.114,526.627L489.417,736.159L557.095,736.159L616.436,526.627L561.018,526.627L540.788,607.909C536.375,625.534 532.37,643.463 528.773,661.698C527.031,670.532 525.308,679.426 523.604,688.381ZM708.023,738.971C724.615,738.971 739.614,734.87 753.019,726.666C766.424,718.463 777.07,706.37 784.958,690.385C792.845,674.401 796.789,654.784 796.789,631.534C796.789,608.19 792.845,588.502 784.958,572.471C777.07,556.44 766.424,544.323 753.019,536.12C739.614,527.916 724.615,523.815 708.023,523.815C691.43,523.815 676.411,527.916 662.965,536.12C649.519,544.323 638.873,556.44 631.026,572.471C623.18,588.502 619.256,608.19 619.256,631.534C619.256,654.69 623.18,674.26 631.026,690.245C638.873,706.229 649.519,718.346 662.965,726.596C676.411,734.846 691.43,738.971 708.023,738.971ZM708.023,689.471C699.849,689.471 692.963,687.245 687.364,682.791C681.765,678.338 677.514,671.799 674.613,663.174C671.711,654.549 670.26,644.002 670.26,631.534C670.26,618.971 671.711,608.354 674.613,599.682C677.514,591.01 681.765,584.448 687.364,579.995C692.963,575.541 699.849,573.315 708.023,573.315C716.278,573.315 723.205,575.541 728.804,579.995C734.403,584.448 738.633,591.01 741.494,599.682C744.355,608.354 745.785,618.971 745.785,631.534C745.785,644.002 744.355,654.549 741.494,663.174C738.633,671.799 734.403,678.338 728.804,682.791C723.205,687.245 716.278,689.471 708.023,689.471Z" style="fill:rgb(228,87,46);"/>
        </g>
    </g>
</svg>
